<?xml version="1.0" encoding="UTF-8"?>
<svg id="_レイヤー_1" data-name="レイヤー 1" xmlns="http://www.w3.org/2000/svg" xmlns:xlink="http://www.w3.org/1999/xlink" viewBox="0 0 289.06 82.06">
  <defs>
    <style>
      .cls-1 {
        stroke: url(#_名称未設定グラデーション_142-2);
      }

      .cls-1, .cls-2, .cls-3, .cls-4, .cls-5, .cls-6, .cls-7 {
        stroke-linecap: round;
      }

      .cls-1, .cls-2, .cls-3, .cls-4, .cls-5, .cls-7 {
        stroke-miterlimit: 10;
      }

      .cls-1, .cls-2, .cls-3, .cls-4, .cls-7 {
        fill: #231815;
      }

      .cls-1, .cls-5, .cls-6 {
        stroke-width: 4px;
      }

      .cls-2 {
        stroke: url(#_名称未設定グラデーション_142-4);
      }

      .cls-2, .cls-3, .cls-4, .cls-7 {
        stroke-width: 5px;
      }

      .cls-3 {
        stroke: url(#_名称未設定グラデーション_142-3);
      }

      .cls-4 {
        stroke: url(#_名称未設定グラデーション_142-5);
      }

      .cls-5, .cls-6 {
        fill: none;
        stroke: #ee7e1a;
      }

      .cls-8 {
        fill: #ee7e1a;
      }

      .cls-6 {
        stroke-linejoin: round;
      }

      .cls-7 {
        stroke: url(#_名称未設定グラデーション_142);
      }

      .cls-9 {
        fill: url(#_名称未設定グラデーション_36);
      }
    </style>
    <linearGradient id="_名称未設定グラデーション_36" data-name="名称未設定グラデーション 36" x1="22.23" y1="28.83" x2="67.37" y2="54.89" gradientUnits="userSpaceOnUse">
      <stop offset="0" stop-color="#ffeebe"/>
      <stop offset=".11" stop-color="#fee59e"/>
      <stop offset=".18" stop-color="#fee290"/>
      <stop offset=".23" stop-color="#fddd89"/>
      <stop offset=".42" stop-color="#facf78"/>
      <stop offset=".56" stop-color="#facb72"/>
      <stop offset=".62" stop-color="#fabd72"/>
      <stop offset=".74" stop-color="#faac72"/>
      <stop offset=".86" stop-color="#faa172"/>
      <stop offset="1" stop-color="#fa9e72"/>
    </linearGradient>
    <linearGradient id="_名称未設定グラデーション_142" data-name="名称未設定グラデーション 142" x1="32.9" y1="71.69" x2="56.68" y2="71.69" gradientUnits="userSpaceOnUse">
      <stop offset="0" stop-color="#ffeebe"/>
      <stop offset=".18" stop-color="#fee290"/>
      <stop offset=".56" stop-color="#facb72"/>
      <stop offset="1" stop-color="#fa9e72"/>
    </linearGradient>
    <linearGradient id="_名称未設定グラデーション_142-2" data-name="名称未設定グラデーション 142" x1="35.49" y1="79.49" x2="54.09" y2="79.49" xlink:href="#_名称未設定グラデーション_142"/>
    <linearGradient id="_名称未設定グラデーション_142-3" data-name="名称未設定グラデーション 142" x1="4.22" y1="12.26" x2="18.49" y2="12.26" xlink:href="#_名称未設定グラデーション_142"/>
    <linearGradient id="_名称未設定グラデーション_142-4" data-name="名称未設定グラデーション 142" x1="0" y1="23.01" x2="14.52" y2="23.01" xlink:href="#_名称未設定グラデーション_142"/>
    <linearGradient id="_名称未設定グラデーション_142-5" data-name="名称未設定グラデーション 142" x1="19.04" y1="7.78" x2="25.39" y2="7.78" xlink:href="#_名称未設定グラデーション_142"/>
  </defs>
  <path class="cls-5" d="M258.74,62.01s7.27,8.72,14.54-1.97"/>
  <path class="cls-6" d="M274.52,52.36c1.68,3.03-.35,5.56-.35,5.56,0,0-3.22.38-4.9-2.65s-1.17-8.32-1.17-8.32c0,0,4.75,2.37,6.43,5.4Z"/>
  <path class="cls-6" d="M280.04,60.57c-3.38.74-5.23-1.93-5.23-1.93,0,0,.56-3.2,3.95-3.94s8.3,1.26,8.3,1.26c0,0-3.64,3.87-7.02,4.61Z"/>
  <g>
    <path class="cls-9" d="M19.08,41.78c0-15.01,11-25.88,25.67-25.88s25.74,10.87,25.74,25.88-11.07,25.87-25.74,25.87-25.67-10.34-25.67-25.87ZM62.63,41.78c0-11.54-8-19.01-17.87-19.01s-17.87,7.47-17.87,19.01,8,18.87,17.87,18.87,17.87-7.4,17.87-18.87Z"/>
    <path class="cls-8" d="M82.01,45.81s.1,0,.14-.05c1.78-1.54,4.03-2.5,6.67-2.5,6.62,0,11.62,4.8,11.62,12.05s-4.99,12.05-11.62,12.05c-2.64,0-4.9-1.01-6.67-2.54-.1-.05-.19-.14-.24-.14-.1,0-.14.1-.14.29,0,5.28.1,9.84.14,11.81.05,1.49-.96,2.5-2.45,2.5-1.3,0-2.54-.86-2.54-2.5v-.24c.14-1.73.14-5.33.14-9.55,0-7.25-.1-16.27-.1-20.83,0-1.78,1.25-2.69,2.5-2.69,1.1,0,2.21.77,2.4,2.21.05.1.1.14.14.14ZM95.65,55.32c0-4.7-3.07-7.58-6.91-7.58s-6.91,2.88-6.91,7.58,3.07,7.68,6.91,7.68,6.91-2.93,6.91-7.68Z"/>
    <path class="cls-8" d="M116.24,67.56c-6.58,0-11.47-4.94-11.47-12.1s5.18-12.39,11.38-12.39c6.62,0,10.37,4.85,10.37,8.5,0,2.26-1.49,4.08-4.56,4.18-1.49.05-2.5.05-11.81.05-.29,0-.38.38-.38.91.05,3.98,3.12,6.38,6.53,6.38,3.02,0,4.85-1.44,6.24-2.93.48-.53,1.06-.77,1.63-.77,1.3,0,2.54,1.15,2.54,2.5,0,.58-.19,1.15-.72,1.68-2.3,2.4-4.9,3.98-9.75,3.98ZM121.52,50.76c0-.67-1.01-3.5-5.33-3.5-3.89,0-6,3.36-6,4.18,0,.43.48.43,4.94.43,1.97,0,4.13,0,5.42-.05.58-.05.96-.48.96-1.06Z"/>
    <path class="cls-8" d="M147.87,64.82c.05-1.97.1-5.62.1-8.54,0-1.92-.05-3.55-.1-4.32-.19-2.98-1.87-4.18-3.89-4.18-2.93,0-6.43,2.59-6.58,5.81-.05.86-.05,1.97-.05,3.31,0,1.97.05,4.51.14,7.92.05,1.01-.53,2.45-2.45,2.45-1.3,0-2.54-.82-2.54-2.35v-.1c.14-4.56.19-7.73.19-10.56s-.05-5.38-.14-8.59v-.1c0-1.44,1.39-2.16,2.59-2.16s2.45.72,2.45,2.26c0,.19-.05.34-.05.48v.14s0,.1.05.1.14-.1.24-.19c1.78-1.92,4.32-2.88,6.82-2.88,4.03,0,7.92,2.64,8.11,8.02.05,1.73.14,6,.14,9.55,0,1.49,0,2.83-.05,3.84-.05,1.73-1.25,2.54-2.5,2.54s-2.5-.86-2.5-2.4v-.05Z"/>
  </g>
  <g>
    <path class="cls-8" d="M179.63,64.58c0,1.68-1.44,2.54-2.88,2.54s-2.88-.86-2.88-2.54v-.05c.1-5.76.24-12.19.24-18.39,0-4.56-.1-8.93-.24-12.82-.1-2.02,2.06-2.54,2.93-2.54,1.39,0,2.83.77,2.83,2.35v.1c-.1,3.98-.14,8.5-.14,13.15,0,6,.05,12.24.14,18.15v.05Z"/>
    <path class="cls-8" d="M208.47,67.13c-1.1,0-2.02-.38-2.69-3.02-.05-.19-.1-.29-.19-.29-.05,0-.14.1-.24.19-1.87,2.02-4.46,3.36-7.58,3.36-6.62,0-11.67-4.8-11.67-12.05s5.04-12.05,11.67-12.05c2.69,0,4.94,1.01,6.72,2.59.05.05.14.05.19.05.1,0,.14-.05.14-.19,0-5.57-.1-10.46-.14-12.48-.05-1.49,1.06-2.5,2.45-2.5,1.25,0,2.5.82,2.5,2.5v.24c-.1,1.63-.14,5.04-.14,9.07,0,17.81.05,17.95,1.44,20.64.24.43.34.86.34,1.3,0,1.54-1.39,2.64-2.78,2.64ZM204.78,55.32c0-4.75-3.07-7.68-6.91-7.68s-6.91,2.93-6.91,7.68,3.07,7.58,6.91,7.58,6.91-2.88,6.91-7.58Z"/>
    <path class="cls-8" d="M227.38,67.56c-6.58,0-11.47-4.94-11.47-12.1s5.18-12.39,11.38-12.39c6.62,0,10.37,4.85,10.37,8.5,0,2.26-1.49,4.08-4.56,4.18-1.49.05-2.5.05-11.81.05-.29,0-.38.38-.38.91.05,3.98,3.12,6.38,6.53,6.38,3.02,0,4.85-1.44,6.24-2.93.48-.53,1.06-.77,1.63-.77,1.3,0,2.54,1.15,2.54,2.5,0,.58-.19,1.15-.72,1.68-2.3,2.4-4.9,3.98-9.75,3.98ZM232.67,50.76c0-.67-1.01-3.5-5.33-3.5-3.89,0-6,3.36-6,4.18,0,.43.48.43,4.94.43,1.97,0,4.13,0,5.42-.05.58-.05.96-.48.96-1.06Z"/>
    <path class="cls-8" d="M260.61,65.24c-.43-.34-.86-.86-1.3-1.58-.05-.1-.63.27-.67.27-.1,0-.58.66-.68.76-1.63,1.87-4.66,2.88-7.49,2.88-5.28,0-8.4-3.84-8.4-7.54,0-2.45,1.44-4.9,4.66-6,3.31-1.15,7.44-2.06,8.21-2.11.48-.05.86-.62.86-1.63,0-.58-.14-3.02-3.41-3.02-2.16,0-3.79,1.01-4.7,2.02-.53.62-1.2.86-1.78.86-1.25,0-2.3-.96-2.3-2.21,0-2.3,4.22-4.85,9.07-4.85,5.28,0,8.16,2.59,8.16,8.11,0,.62-.05,1.2-.1,1.87-.1.72-.24,2.54-.24,3.98,0,.43,0,.82.05,1.1.43,3.84,1.93,4.27,2.32,4.55.53.38,1.04.73,1.04,1.4,0,1.34-.19,1.85-1.58,1.85-.53,0-1.15-.24-1.73-.72ZM255.32,55.94c-8.11,1.01-8.59,3.02-8.59,4.18,0,1.49,1.3,2.98,3.74,2.98,3.89,0,5.57-1.97,5.57-5.38,0-.72-.1-1.78-.67-1.78h-.05Z"/>
  </g>
  <path class="cls-7" d="M35.4,71c-.12-.01,4.2,1.23,9.6,1.38,4.02.11,9.18-1.38,9.18-1.38"/>
  <path class="cls-1" d="M37.49,78.93c-.09,0,3.1,1.06,7.3,1.13,3.13.05,7.3-1.13,7.3-1.13"/>
  <line class="cls-3" x1="6.72" y1="7.47" x2="15.99" y2="17.05"/>
  <line class="cls-2" x1="2.5" y1="22.06" x2="12.02" y2="23.96"/>
  <line class="cls-4" x1="21.54" y1="2.5" x2="22.89" y2="13.05"/>
</svg>